HIERARCHY
ROOT Hips
{
	OFFSET 0.000000 0.000000 0.000000 
	CHANNELS 6 Xposition Yposition Zposition Zrotation Yrotation Xrotation
	JOINT LeftUpLeg
	{
		OFFSET 1.363060 -1.794630 0.839290 
		CHANNELS 3 Zrotation Yrotation Xrotation
		JOINT LeftLeg
		{
			OFFSET 2.448110 -6.726130 0.000000 
			CHANNELS 3 Zrotation Yrotation Xrotation
			JOINT LeftFoot
			{
				OFFSET 2.562200 -7.039590 0.000000 
				CHANNELS 3 Zrotation Yrotation Xrotation
				JOINT LeftToeBase
				{
					OFFSET 0.157640 -0.433110 2.322550 
					CHANNELS 3 Zrotation Yrotation Xrotation
					End Site
					{
						OFFSET 0.000000 0.000000 0.000000 
					}
				}
			}
		}
	}
	JOINT RightUpLeg
	{
		OFFSET -1.305520 -1.794630 0.839290 
		CHANNELS 3 Zrotation Yrotation Xrotation
		JOINT RightLeg
		{
			OFFSET -2.542530 -6.985550 0.000000 
			CHANNELS 3 Zrotation Yrotation Xrotation
			JOINT RightFoot
			{
				OFFSET -2.568260 -7.056230 0.000000 
				CHANNELS 3 Zrotation Yrotation Xrotation
				JOINT RightToeBase
				{
					OFFSET -0.164730 -0.452590 2.363150 
					CHANNELS 3 Zrotation Yrotation Xrotation
					End Site
					{
						OFFSET 0.000000 0.000000 0.000000 
					}
				}
			}
		}
	}
	JOINT Spine
	{
		OFFSET 0.028270 2.035590 -0.193380 
		CHANNELS 3 Zrotation Yrotation Xrotation
		JOINT Spine1
		{
			OFFSET 0.056720 2.048850 -0.042750 
			CHANNELS 3 Zrotation Yrotation Xrotation
			JOINT Neck1
			{
				OFFSET -0.054170 1.746240 0.172020 
				CHANNELS 3 Zrotation Yrotation Xrotation
				JOINT Head
				{
					OFFSET 0.104070 1.761360 -0.123970 
					CHANNELS 3 Zrotation Yrotation Xrotation
					End Site
					{
						OFFSET 0.000000 0.000000 0.000000 
					}
				}
			}
			JOINT LeftArm
			{
				OFFSET 3.362410 1.200890 -0.311210 
				CHANNELS 3 Zrotation Yrotation Xrotation
				JOINT LeftForeArm
				{
					OFFSET 4.983000 -0.000000 -0.000000 
					CHANNELS 3 Zrotation Yrotation Xrotation
					JOINT LeftHand
					{
						OFFSET 3.483560 -0.000000 -0.000000 
						CHANNELS 3 Zrotation Yrotation Xrotation
						JOINT LeftHandIndex1
						{
							OFFSET 0.715260 -0.000000 -0.000000 
							CHANNELS 3 Zrotation Yrotation Xrotation
							End Site
							{
								OFFSET 0.000000 0.000000 0.000000 
							}
						}
					}
				}
			}
			JOINT RightArm
			{
				OFFSET -3.136600 1.374050 -0.404650 
				CHANNELS 3 Zrotation Yrotation Xrotation
				JOINT RightForeArm
				{
					OFFSET -5.241900 -0.000000 -0.000000 
					CHANNELS 3 Zrotation Yrotation Xrotation
					JOINT RightHand
					{
						OFFSET -3.444170 -0.000000 -0.000000 
						CHANNELS 3 Zrotation Yrotation Xrotation
						JOINT RightHandIndex1
						{
							OFFSET -0.622530 -0.000000 -0.000000 
							CHANNELS 3 Zrotation Yrotation Xrotation
							End Site
							{
								OFFSET 0.000000 0.000000 0.000000 
							}
						}
					}
				}
			}
		}
	}
}
MOTION
Frames: 17
Frame Time: 0.041667
3.212215 17.674185 0.216568 -173.792969 89.246107 -174.502387 -15.192725 -1.819799 -2.876190 0.076232 2.702332 10.850264 0.473754 -4.482174 -0.464051 0.025800 -1.037000 -2.850600 21.314117 7.626822 1.366505 0.466088 -2.959779 15.029094 -0.000191 -4.929729 -15.550080 -0.078800 1.811400 -4.984600 -1.199425 -0.322302 2.550616 -3.965220 -0.306901 -5.727871 8.903100 -8.479957 6.123220 3.529500 -3.949900 2.991100 -82.996350 5.695719 22.217170 9.666128 -20.916144 -1.955977 0.428551 1.227333 -31.641843 -7.125000 0.000000 0.000000 84.827713 -8.590966 18.111469 -11.960407 24.606178 -2.492024 -0.027363 0.473991 8.802105 7.125000 0.000000 0.000000 
3.212715 17.674485 0.216969 -174.805034 89.255672 -175.504453 -15.219135 -1.814266 -2.838324 0.068102 2.670315 10.759964 0.468651 -4.453841 -0.428496 0.023500 -0.988600 -2.717500 21.283487 7.638255 1.311947 0.454210 -2.991806 15.116834 -0.006593 -4.920526 -15.585261 -0.079700 1.821500 -5.012700 -1.193120 -0.332551 2.556094 -3.926492 -0.307246 -5.712418 8.877188 -8.462142 6.160472 3.516400 -3.939600 3.013800 -83.039806 5.704960 22.197701 9.651421 -20.897122 -1.952309 0.439987 1.233285 -31.916756 -7.125000 0.000000 0.000000 84.890953 -8.500188 17.576111 -11.865720 24.474846 -2.463674 -0.017443 0.478070 8.970832 7.125000 0.000000 0.000000 
3.213716 17.676886 0.217969 -173.581808 89.233586 -174.292828 -15.170610 -1.795765 -2.799075 0.063587 2.650256 10.708084 0.466275 -4.430554 -0.432717 0.030600 -1.129900 -3.106400 21.336066 7.648506 1.296229 0.445795 -3.012271 15.170092 -0.037626 -4.795374 -15.619689 -0.057300 1.544400 -4.248200 -1.172743 -0.333951 2.572045 -3.913821 -0.310932 -5.688537 8.876896 -8.457741 6.131590 3.516900 -3.938100 3.000900 -83.036105 5.697221 22.305887 9.656740 -20.908003 -1.955561 0.436374 1.252257 -32.266261 -7.125000 0.000000 0.000000 84.944257 -8.430621 17.046454 -11.778999 24.352411 -2.437785 -0.014984 0.481547 9.021625 7.125000 0.000000 0.000000 
3.213816 17.678386 0.218569 -171.546727 89.149698 -172.274433 -15.073172 -1.806120 -2.718621 0.052818 2.604964 10.587004 0.459894 -4.378875 -0.414533 0.038900 -1.273100 -3.500600 21.435215 7.622737 1.258272 0.432729 -3.046195 15.259887 -0.065596 -4.687800 -15.660153 -0.061100 1.595100 -4.388000 -1.156265 -0.362314 2.578376 -3.928659 -0.333291 -5.693246 8.902142 -8.467816 6.120098 3.527200 -3.942300 2.999000 -83.075022 5.629872 22.031894 9.542054 -20.749789 -1.924205 0.453037 1.245813 -32.183375 -7.125000 0.000000 0.000000 85.036074 -8.381584 16.500293 -11.702303 24.243195 -2.415268 -0.010979 0.483174 9.006735 7.125000 0.000000 0.000000 
3.217817 17.676086 0.217569 -176.784437 89.243511 -177.544778 -15.267598 -1.780776 -2.596100 0.039520 2.557735 10.447331 0.451523 -4.319085 -0.425449 0.045500 -1.376700 -3.786000 21.231462 7.609034 1.270060 0.419766 -3.071098 15.343677 -0.059503 -4.743153 -15.705083 -0.099000 2.028600 -5.584600 -1.198915 -0.354731 2.592783 -3.879994 -0.309801 -5.669007 8.921353 -8.454352 6.128624 3.537800 -3.935300 3.001500 -83.130450 5.603382 21.680616 9.425414 -20.588545 -1.892381 0.468038 1.232471 -32.065712 -7.125000 0.000000 0.000000 85.079764 -8.345679 16.079308 -11.627665 24.136017 -2.392603 -0.015401 0.486667 8.853136 7.125000 0.000000 0.000000 
3.225719 17.671484 0.214468 175.588013 89.279871 174.780861 -15.557068 -1.786969 -2.413433 0.030322 2.504938 10.317237 0.450189 -4.352770 -0.379407 0.025800 -1.036300 -2.848700 20.905548 7.549180 1.285345 0.404732 -3.099110 15.420551 -0.080088 -4.663532 -15.736724 -0.086000 1.891200 -5.205100 -1.243149 -0.366643 2.615969 -3.788619 -0.293609 -5.616117 8.959405 -8.446851 6.155935 3.562100 -3.931100 3.014800 -83.203714 5.619399 21.442000 9.330880 -20.457774 -1.864245 0.486362 1.207036 -32.084979 -7.125000 0.000000 0.000000 85.094660 -8.328915 15.653986 -11.558439 24.036611 -2.371754 -0.021504 0.494106 8.781037 7.125000 0.000000 0.000000 
3.229120 17.670884 0.212967 173.613711 89.272300 172.772926 -15.640662 -1.756745 -2.260594 0.016578 2.437016 10.141964 0.437243 -4.290710 -0.270293 0.032500 -1.163100 -3.197600 20.817513 7.540423 1.266450 0.390304 -3.137568 15.522071 -0.084471 -4.662801 -15.772703 -0.075800 1.775500 -4.885700 -1.249428 -0.376783 2.630731 -3.756940 -0.294741 -5.595556 8.943419 -8.436508 6.140556 3.559200 -3.927900 3.003400 -83.338110 5.566808 20.747923 9.193400 -20.261553 -1.829833 0.492791 1.197763 -31.602390 -7.125000 0.000000 0.000000 85.094613 -8.333978 15.278290 -11.520042 23.982446 -2.361876 -0.016254 0.494971 8.515401 7.125000 0.000000 0.000000 
3.229420 17.671884 0.213067 173.717077 89.259005 172.878312 -15.638488 -1.742892 -2.189470 0.006153 2.388998 10.011360 0.431229 -4.264447 -0.200973 0.030200 -1.122400 -3.085700 20.825870 7.540573 1.235203 0.382786 -3.161345 15.587275 -0.073725 -4.731109 -15.804446 -0.095100 1.988800 -5.474800 -1.236204 -0.386097 2.632161 -3.730092 -0.299101 -5.589454 8.940151 -8.441878 6.096078 3.562900 -3.933200 2.979100 -83.435282 5.504695 20.301160 9.085436 -20.108308 -1.803377 0.501202 1.200298 -31.310364 -7.125000 0.000000 0.000000 85.091866 -8.308012 14.914375 -11.530126 23.996560 -2.369478 -0.001286 0.483925 8.089814 7.125000 0.000000 0.000000 
3.229821 17.671684 0.213267 171.876925 89.271449 171.030672 -15.706746 -1.702681 -2.093440 -0.005793 2.330760 9.861857 0.421868 -4.209039 -0.155618 0.027700 -1.074000 -2.952500 20.757970 7.561096 1.204756 0.372984 -3.188970 15.654912 -0.085405 -4.687883 -15.825074 -0.090400 1.939100 -5.337400 -1.231702 -0.387291 2.644607 -3.671995 -0.295895 -5.568057 8.909789 -8.448317 6.121933 3.548300 -3.936400 2.991800 -83.488070 5.417457 20.035528 8.958180 -19.929881 -1.769198 0.522902 1.189566 -31.153430 -7.125000 0.000000 0.000000 85.122801 -8.258825 14.436760 -11.547228 24.016273 -2.379670 0.010241 0.470265 7.953945 7.125000 0.000000 0.000000 
3.231721 17.670284 0.212567 170.771079 89.299512 169.916912 -15.741853 -1.633974 -1.978515 -0.020138 2.256325 9.666496 0.414488 -4.187484 -0.052649 0.025500 -1.030800 -2.833700 20.711631 7.601696 1.180752 0.362161 -3.217494 15.725836 -0.102839 -4.609922 -15.831367 -0.077800 1.799500 -4.951900 -1.229600 -0.368492 2.662697 -3.648559 -0.284433 -5.530033 8.914391 -8.462535 6.149250 3.548600 -3.941600 3.012300 -83.496758 5.369359 19.833049 8.878811 -19.817467 -1.747715 0.528135 1.175904 -31.115421 -7.125000 0.000000 0.000000 85.166776 -8.191902 13.848260 -11.483714 23.924843 -2.361950 0.017135 0.476553 8.107762 7.125000 0.000000 0.000000 
3.233422 17.673885 0.212367 169.797622 89.288935 168.944465 -15.778710 -1.618385 -1.903624 -0.029116 2.209877 9.546395 0.411415 -4.180725 -0.013933 0.031300 -1.142700 -3.141400 20.663180 7.604012 1.150811 0.354060 -3.236677 15.771781 -0.126938 -4.504296 -15.844209 -0.055800 1.524200 -4.192600 -1.233474 -0.364292 2.661183 -3.631581 -0.280952 -5.516891 8.918584 -8.463421 6.160519 3.549700 -3.941700 3.015900 -83.406981 5.372508 19.965409 8.836793 -19.766038 -1.737129 0.503371 1.181065 -31.430621 -7.125000 0.000000 0.000000 85.278237 -8.189230 12.969867 -11.451581 23.879031 -2.356275 0.036585 0.485239 8.379694 7.125000 0.000000 0.000000 
3.234322 17.677786 0.212167 169.788142 89.309800 168.925305 -15.780183 -1.585605 -1.872796 -0.031273 2.197353 9.514221 0.411661 -4.182930 -0.022494 0.031500 -1.144800 -3.147300 20.667612 7.628373 1.148616 0.352016 -3.243963 15.791008 -0.118183 -4.537208 -15.829243 -0.054400 1.505200 -4.140000 -1.225481 -0.322281 2.657378 -3.618969 -0.259477 -5.524643 8.927421 -8.487651 6.179678 3.555400 -3.953500 3.027700 -83.243471 5.405529 20.522573 8.882185 -19.838754 -1.747513 0.464114 1.189368 -32.077698 -7.125000 0.000000 0.000000 85.285242 -8.259624 12.518681 -11.510492 23.957615 -2.379450 0.044000 0.477789 8.127874 7.125000 0.000000 0.000000 
3.233722 17.674285 0.211667 169.813447 89.314982 168.950982 -15.776892 -1.579850 -1.871458 -0.032623 2.191273 9.497325 0.411809 -4.185649 -0.016801 0.024600 -1.011800 -2.781400 20.678956 7.630633 1.154934 0.353420 -3.245263 15.796111 -0.093099 -4.657497 -15.835515 -0.079000 1.812700 -4.988400 -1.230289 -0.306249 2.641973 -3.628038 -0.252380 -5.556573 8.911711 -8.490773 6.180867 3.546400 -3.955200 3.026500 -83.047398 5.453704 21.013367 8.957517 -19.950093 -1.765498 0.418426 1.185005 -32.528666 -7.125000 0.000000 0.000000 85.268265 -8.286350 12.140063 -11.555677 24.018381 -2.398022 0.055226 0.471333 7.793245 7.125000 0.000000 0.000000 
3.233322 17.670384 0.211867 168.935957 89.313258 168.079521 -15.806076 -1.603357 -1.930829 -0.024877 2.227940 9.601450 0.416052 -4.198777 -0.094014 0.025300 -1.027400 -2.824100 20.652185 7.620001 1.173232 0.362482 -3.229072 15.748514 -0.059203 -4.808896 -15.825671 -0.102800 2.067600 -5.692400 -1.233703 -0.317513 2.634145 -3.601305 -0.256306 -5.559889 8.888045 -8.465191 6.284214 3.528600 -3.938400 3.078200 -82.917693 5.425594 21.005833 8.956889 -19.946766 -1.763529 0.390463 1.156594 -32.495403 -7.125000 0.000000 0.000000 85.300628 -8.178577 11.412861 -11.481611 23.909584 -2.378002 0.070673 0.473038 7.705223 7.125000 0.000000 0.000000 
3.234122 17.669383 0.212067 169.945876 89.298037 169.098437 -15.774930 -1.654667 -2.028869 -0.011112 2.295135 9.778080 0.426911 -4.258744 -0.174874 0.028000 -1.081200 -2.972100 20.682650 7.591566 1.199166 0.372096 -3.200364 15.675681 -0.057511 -4.805258 -15.804837 -0.097700 2.016200 -5.550400 -1.241118 -0.329503 2.645885 -3.628702 -0.262322 -5.523841 8.867452 -8.451580 6.363091 3.510000 -3.927200 3.123200 -82.702078 5.417290 21.124270 9.061144 -20.088150 -1.791517 0.336567 1.137333 -32.630781 -7.125000 0.000000 0.000000 85.389111 -8.005792 10.389163 -11.394674 23.781314 -2.354862 0.093639 0.479492 7.976809 7.125000 0.000000 0.000000 
3.236023 17.668783 0.211867 171.799819 89.274680 170.945638 -15.709570 -1.705984 -2.108986 0.000700 2.358620 9.939586 0.431423 -4.261984 -0.247164 0.032900 -1.171100 -3.219600 20.752470 7.545953 1.255807 0.381140 -3.168147 15.600148 -0.061292 -4.777128 -15.785401 -0.099300 2.031700 -5.593200 -1.251949 -0.341072 2.660142 -3.684415 -0.269577 -5.490182 8.892670 -8.445481 6.397447 3.517800 -3.921400 3.142600 -82.392290 5.381008 21.325680 9.191455 -20.266709 -1.829850 0.261195 1.132620 -32.838609 -7.125000 0.000000 0.000000 85.445603 -7.955308 9.558615 -11.438636 23.838471 -2.374717 0.117199 0.478682 8.166574 7.125000 0.000000 0.000000 
3.237923 17.670384 0.212067 172.636850 89.243028 171.797748 -15.678204 -1.761475 -2.179634 0.009247 2.402385 10.053026 0.436869 -4.286578 -0.295505 0.028300 -1.086000 -2.985400 20.771102 7.500875 1.287530 0.388598 -3.140012 15.528364 -0.093874 -4.637272 -15.807430 -0.073200 1.745700 -4.803500 -1.274862 -0.354953 2.648532 -3.735475 -0.278095 -5.487660 8.939999 -8.444613 6.486690 3.534600 -3.915900 3.190100 -82.068154 5.335376 21.268853 9.283726 -20.387580 -1.856257 0.209516 1.094310 -32.888967 -7.125000 0.000000 0.000000 85.540519 -7.809995 8.310390 -11.362881 23.726094 -2.355183 0.145463 0.498708 8.628083 7.125000 0.000000 0.000000 
